<svg data-v-423bf9ae="" xmlns="http://www.w3.org/2000/svg" viewBox="0 0 547 90" class="iconLeft"><!----><!----><!----><g data-v-423bf9ae="" id="9e489183-3312-40ed-b222-f7890be0786c" fill="#ffffff" transform="matrix(4.460966606012034,0,0,4.460966606012034,107.94795558975488,12.5464667041891)"><path d="M7.11 10.05L7.11 8.85C6.38 9.07 5.57 9.23 4.86 9.23C2.93 9.23 1.90 8.15 1.90 6.06C1.90 3.98 2.93 2.90 4.86 2.90C5.24 2.90 5.67 2.95 6.09 3.02L6.65 4.00L7.11 4.00L7.11 2.07C6.44 1.86 5.53 1.69 4.86 1.69C2.03 1.69 0.46 3.40 0.46 6.06C0.46 8.72 2.03 10.43 4.86 10.43C5.53 10.43 6.44 10.26 7.11 10.05ZM14.48 7C14.48 4.87 13.26 3.57 11.31 3.57C9.37 3.57 8.13 4.87 8.13 7C8.13 9.11 9.37 10.43 11.31 10.43C13.26 10.43 14.48 9.11 14.48 7ZM13.10 7C13.10 8.50 12.40 9.28 11.31 9.28C10.21 9.28 9.51 8.50 9.51 7C9.51 5.50 10.21 4.70 11.31 4.70C12.40 4.70 13.10 5.50 13.10 7ZM26.82 10.26L26.82 9.80L25.80 9.28L25.80 6.02C25.80 4.51 24.77 3.57 23.07 3.57C22.13 3.57 21.42 3.91 21.07 4.45C20.68 3.91 19.92 3.57 18.86 3.57C18.00 3.57 16.97 3.74 16.11 3.99L15.89 4.05L16.20 5.08L16.20 10.26L17.51 10.26L17.51 4.89C17.93 4.77 18.41 4.70 18.86 4.70C19.84 4.70 20.34 5.15 20.34 6.02L20.34 10.26L21.66 10.26L21.66 6.02C21.66 5.18 22.16 4.70 23.07 4.70C24.00 4.70 24.49 5.18 24.49 6.02L24.49 10.26ZM38.82 10.26L38.82 9.80L37.80 9.28L37.80 6.02C37.80 4.51 36.76 3.57 35.07 3.57C34.13 3.57 33.42 3.91 33.07 4.45C32.68 3.91 31.92 3.57 30.86 3.57C30.00 3.57 28.97 3.74 28.11 3.99L27.89 4.05L28.20 5.08L28.20 10.26L29.51 10.26L29.51 4.89C29.93 4.77 30.41 4.70 30.86 4.70C31.84 4.70 32.34 5.15 32.34 6.02L32.34 10.26L33.66 10.26L33.66 6.02C33.66 5.18 34.16 4.70 35.07 4.70C35.99 4.70 36.48 5.18 36.48 6.02L36.48 10.26ZM46.69 10.26L46.69 9.14C46.49 9.21 46.27 9.28 46.03 9.28C45.71 9.28 45.57 9.13 45.57 8.81L45.57 3.72L44.25 3.72L44.25 9.02C43.83 9.18 43.41 9.28 42.91 9.28C41.93 9.28 41.43 8.83 41.43 7.98L41.43 3.72L40.11 3.72L40.11 7.98C40.11 9.52 41.17 10.43 42.91 10.43C43.54 10.43 44.11 10.28 44.63 10.04C44.88 10.29 45.28 10.43 45.70 10.43C46.05 10.43 46.42 10.35 46.69 10.26ZM54.56 10.26L54.56 9.80L53.54 9.28L53.54 6.02C53.54 4.47 52.47 3.57 50.74 3.57C49.88 3.57 48.85 3.74 47.99 3.99L47.77 4.05L48.08 5.08L48.08 10.26L49.39 10.26L49.39 4.89C49.81 4.77 50.29 4.70 50.74 4.70C51.72 4.70 52.22 5.15 52.22 6.02L52.22 10.26ZM57.39 1.40C57.39 0.92 57.01 0.55 56.55 0.55C56.08 0.55 55.71 0.92 55.71 1.40C55.71 1.86 56.08 2.24 56.55 2.24C57.01 2.24 57.39 1.86 57.39 1.40ZM58.21 10.26L58.21 9.80L57.20 9.28L57.20 3.72L55.89 3.72L55.89 10.26ZM63.57 10.28L63.57 9.13C63.31 9.23 62.97 9.28 62.66 9.28C61.75 9.28 61.35 8.86 61.35 8.09L61.35 4.86L63.57 4.86L63.57 3.72L61.35 3.72L61.35 1.76L60.03 1.96L60.03 3.72L58.63 3.72L58.63 4.86L60.03 4.86L60.03 8.09C60.03 9.55 61.00 10.43 62.66 10.43C62.94 10.43 63.31 10.36 63.57 10.28ZM70.66 3.72L68.01 3.72L68.01 4.19L68.88 4.61L67.41 8.50L65.62 3.72L64.18 3.72L66.72 10.00L65.09 14L66.46 14ZM77.87 10.05L77.87 8.85C77.14 9.07 76.33 9.23 75.61 9.23C73.68 9.23 72.66 8.15 72.66 6.06C72.66 3.98 73.68 2.90 75.61 2.90C75.99 2.90 76.43 2.95 76.85 3.02L77.41 4.00L77.87 4.00L77.87 2.07C77.20 1.86 76.29 1.69 75.61 1.69C72.79 1.69 71.22 3.40 71.22 6.06C71.22 8.72 72.79 10.43 75.61 10.43C76.29 10.43 77.20 10.26 77.87 10.05ZM85.58 10.26L85.58 9.14C85.39 9.21 85.16 9.28 84.92 9.28C84.60 9.28 84.46 9.13 84.46 8.81L84.46 6.02C84.46 4.44 83.34 3.57 81.54 3.57C80.95 3.57 80.22 3.70 79.56 3.88L79.56 5.80L80.01 5.80L80.53 4.82C80.88 4.75 81.24 4.70 81.54 4.70C82.61 4.70 83.15 5.17 83.15 6.02L83.15 6.40L81.38 6.40C79.74 6.40 78.89 7.24 78.89 8.34C78.89 9.53 79.86 10.43 81.61 10.43C82.28 10.43 82.94 10.25 83.47 9.98C83.71 10.26 84.13 10.43 84.59 10.43C84.94 10.43 85.32 10.35 85.58 10.26ZM83.15 9.02C82.68 9.24 82.14 9.38 81.61 9.38C80.68 9.38 80.22 8.99 80.22 8.34C80.22 7.78 80.57 7.43 81.38 7.43L83.15 7.43ZM91.41 5.80L91.41 3.86C90.87 3.70 90.16 3.57 89.63 3.57C88.77 3.57 87.74 3.74 86.88 3.99L86.66 4.05L86.97 5.08L86.97 10.26L88.28 10.26L88.28 4.89C88.70 4.77 89.18 4.70 89.63 4.70C89.87 4.70 90.15 4.73 90.43 4.79L90.94 5.80ZM95.35 3.57C93.48 3.57 92.25 4.86 92.25 7C92.25 9.21 93.63 10.43 95.89 10.43C96.50 10.43 97.29 10.29 97.85 10.08L97.85 8.95C97.27 9.14 96.53 9.28 95.89 9.28C94.61 9.28 93.73 8.74 93.62 7.43L98.36 7.43C98.38 7.29 98.38 7.15 98.38 7C98.38 4.86 97.24 3.57 95.35 3.57ZM97.08 6.36L93.63 6.36C93.76 5.25 94.42 4.65 95.35 4.65C96.25 4.65 96.94 5.22 97.08 6.36Z"></path></g><!----><g data-v-423bf9ae="" id="1531c809-12c7-4820-80b7-cb8dba636cdb" transform="matrix(1.875,0,0,1.875,-3.75,-3.75)" stroke="none" fill="#D54F3E"><path d="M47 11h-8V5c0-1.66-1.35-3-3-3H16c-1.65 0-3 1.34-3 3v6H5c-1.65 0-3 1.34-3 3v33c0 1.65 1.35 3 3 3h42c1.65 0 3-1.35 3-3V14c0-1.66-1.35-3-3-3zM26 40.998c-6.075 0-11-4.925-11-11s4.925-11 11-11 11 4.925 11 11-4.925 11-11 11zM37 11H15V5c0-.55.45-1 1-1h20c.55 0 1 .45 1 1v6z"></path><path d="M27 22.998h-2v6h-6v2h6v6h2v-6h6v-2h-6z"></path></g><!----></svg>